# xmcd
#
# Track frame offsets:
#	150
#	15064
#	40064
#	63804
#	81449
#	100981
#	118431
#	136566
#	154586
#	169881
#	193124
#	205795
#	220949
#	246221
#	264980
#	293293
#
# Disc length: 4032 seconds
#
# Revision: 4
# Processed by: cddbd v1.5.2PL0 Copyright (c) Steve Scherf et al.
# Submitted via: audiograbber 1.83.01
#
DISCID=d20fbe10
DTITLE=Various Artist - Blue Rose Collection Vol. 9
DYEAR=2002
DGENRE=Rock
TTITLE0=Jason Ringenberg - Honky Tonk Maniac From Mars
TTITLE1=Stephen Bruton - Teach Me How To Stay
TTITLE2=Bottle Rockets - At The Crossroads
TTITLE3=Michael Hall and The Woodpeckers - Sometimes I Wish I Never Heard The Rol
TTITLE3=ling Stones
TTITLE4=Continental Drifters - I'm A Dreamer
TTITLE5=Elliott Murphy - Irish Eyes
TTITLE6=Chuck Prophet - Run Primo, Run
TTITLE7=Hooblers - Broken
TTITLE8=Julian Dawson - Freedom Of The Highway
TTITLE9=Say Zuzu - Independence Day
TTITLE10=Todd Thibaud - Barroom Girls
TTITLE11=Jolene - Upstairs At The Flying H.
TTITLE12=Jon Dee Graham - Home
TTITLE13=Little Blue - Willow Lane
TTITLE14=Mark Eitzel - Snowbird
TTITLE15=Little Blue - Straight For The Moon (Videoclip)
EXTD=
EXTT0=
EXTT1=
EXTT2=
EXTT3=
EXTT4=
EXTT5=
EXTT6=
EXTT7=
EXTT8=
EXTT9=
EXTT10=
EXTT11=
EXTT12=
EXTT13=
EXTT14=
EXTT15=
PLAYORDER=
